<svg width="229" height="44" viewBox="0 0 229 44" fill="none" xmlns="http://www.w3.org/2000/svg">
<path d="M8.36364 35.2841C11.1818 35.2841 12.6477 33.6591 13.3182 32.2045H13.5227V35H18.2955V11.7273H13.4659V20.4773H13.3182C12.6705 19.0568 11.2727 17.3182 8.35227 17.3182C4.52273 17.3182 1.28409 20.2955 1.28409 26.2955C1.28409 32.1364 4.38636 35.2841 8.36364 35.2841ZM9.89773 31.4318C7.52273 31.4318 6.22727 29.3182 6.22727 26.2727C6.22727 23.25 7.5 21.1705 9.89773 21.1705C12.25 21.1705 13.5682 23.1591 13.5682 26.2727C13.5682 29.3864 12.2273 31.4318 9.89773 31.4318ZM30.2301 35.3409C34.5483 35.3409 37.4574 33.2386 38.1392 30L33.6619 29.7045C33.1733 31.0341 31.9233 31.7273 30.3097 31.7273C27.8892 31.7273 26.3551 30.125 26.3551 27.5227V27.5114H38.2415V26.1818C38.2415 20.25 34.6506 17.3182 30.0369 17.3182C24.9006 17.3182 21.571 20.9659 21.571 26.3523C21.571 31.8864 24.8551 35.3409 30.2301 35.3409ZM26.3551 24.5114C26.4574 22.5227 27.9688 20.9318 30.1165 20.9318C32.2188 20.9318 33.6733 22.4318 33.6847 24.5114H26.3551ZM57.1733 17.5455H52.0483L48.4347 30.0341H48.2528L44.6278 17.5455H39.5142L45.6165 35H51.071L57.1733 17.5455Z" fill="#969CB3"/>
<path d="M63.0753 35.3324C64.7116 35.3324 66.1307 33.9645 66.1435 32.2642C66.1307 30.5895 64.7116 29.2216 63.0753 29.2216C61.3878 29.2216 59.9943 30.5895 60.0071 32.2642C59.9943 33.9645 61.3878 35.3324 63.0753 35.3324Z" fill="black"/>
<path d="M80.3423 38.2727H83.3594L83.3849 35.3196C88.9205 34.8977 92.1293 31.9574 92.142 27.5213C92.1293 23.1619 88.8438 20.848 84.2926 19.8253L83.5384 19.6463L83.5895 13.2543C85.2898 13.6506 86.3253 14.7372 86.4787 16.348H91.7841C91.7202 12.1165 88.5625 9.08665 83.6406 8.54972L83.6662 5.54545H80.6491L80.6236 8.52415C75.625 9.00994 72.0966 12.027 72.1222 16.3864C72.1094 20.2472 74.8324 22.4588 79.2557 23.5199L80.483 23.8267L80.419 30.5895C78.3352 30.1932 76.929 28.9148 76.7884 26.7798H71.4318C71.5597 31.9446 74.9474 34.8338 80.3679 35.3068L80.3423 38.2727ZM83.4361 30.5895L83.4872 24.6193C85.4688 25.2457 86.5426 26.0511 86.5554 27.5085C86.5426 29.0554 85.3665 30.206 83.4361 30.5895ZM80.5213 18.8665C78.9233 18.3168 77.7727 17.4858 77.7983 16.0156C77.7983 14.6477 78.7699 13.5866 80.5724 13.2159L80.5213 18.8665Z" fill="#49AA26"/>
<path d="M101.363 35.3707C104.265 35.3707 106.144 34.1051 107.103 32.277H107.256V35H112.421V21.7557C112.421 17.0767 108.458 15.108 104.086 15.108C99.381 15.108 96.2873 17.358 95.533 20.9375L100.57 21.3466C100.941 20.0426 102.104 19.0838 104.06 19.0838C105.914 19.0838 106.975 20.017 106.975 21.6278V21.7045C106.975 22.9702 105.632 23.1364 102.219 23.4688C98.3327 23.8267 94.8427 25.1307 94.8427 29.5156C94.8427 33.402 97.6168 35.3707 101.363 35.3707ZM102.922 31.6122C101.248 31.6122 100.046 30.8324 100.046 29.3366C100.046 27.8026 101.311 27.0483 103.229 26.7798C104.418 26.6136 106.361 26.3324 107.013 25.8977V27.9815C107.013 30.0398 105.313 31.6122 102.922 31.6122ZM134.25 15.3636H128.484L124.419 29.4134H124.214L120.136 15.3636H114.383L121.248 35H127.385L134.25 15.3636ZM137.037 35H142.483V15.3636H137.037V35ZM139.772 12.8324C141.396 12.8324 142.725 11.5923 142.725 10.071C142.725 8.5625 141.396 7.32244 139.772 7.32244C138.162 7.32244 136.832 8.5625 136.832 10.071C136.832 11.5923 138.162 12.8324 139.772 12.8324ZM152.291 23.6477C152.304 21.1165 153.812 19.6335 156.011 19.6335C158.197 19.6335 159.514 21.0653 159.501 23.4688V35H164.947V22.4972C164.947 17.9205 162.263 15.108 158.172 15.108C155.257 15.108 153.148 16.5398 152.266 18.8281H152.036V15.3636H146.845V35H152.291V23.6477ZM178.086 42.7727C183.699 42.7727 187.687 40.2159 187.687 35.1918V15.3636H182.279V18.6619H182.075C181.346 17.0639 179.748 15.108 176.463 15.108C172.154 15.108 168.511 18.4574 168.511 25.1435C168.511 31.6761 172.052 34.7188 176.475 34.7188C179.608 34.7188 181.359 33.1463 182.075 31.5227H182.305V35.1151C182.305 37.8125 180.579 38.8608 178.214 38.8608C175.811 38.8608 174.596 37.8125 174.149 36.6236L169.112 37.3011C169.764 40.3949 172.794 42.7727 178.086 42.7727ZM178.201 30.6278C175.529 30.6278 174.072 28.5057 174.072 25.1179C174.072 21.7812 175.504 19.4418 178.201 19.4418C180.848 19.4418 182.331 21.679 182.331 25.1179C182.331 28.5824 180.822 30.6278 178.201 30.6278ZM208.359 20.9631C207.873 17.3452 204.958 15.108 199.998 15.108C194.974 15.108 191.663 17.4347 191.676 21.2188C191.663 24.1591 193.517 26.0639 197.352 26.831L200.752 27.5085C202.466 27.8537 203.245 28.4801 203.271 29.4645C203.245 30.6278 201.98 31.4588 200.075 31.4588C198.132 31.4588 196.841 30.6278 196.508 29.0298L191.152 29.3111C191.663 33.0696 194.859 35.3835 200.062 35.3835C205.15 35.3835 208.794 32.7884 208.806 28.9148C208.794 26.0767 206.94 24.3764 203.13 23.5966L199.576 22.8807C197.748 22.4844 197.071 21.858 197.083 20.9119C197.071 19.7358 198.4 18.9688 200.088 18.9688C201.98 18.9688 203.105 20.0043 203.373 21.2699L208.359 20.9631Z" fill="#363F5F"/>
</svg>
