<?xml version="1.0" standalone="no"?>
<!DOCTYPE svg PUBLIC "-//W3C//DTD SVG 20010904//EN"
 "http://www.w3.org/TR/2001/REC-SVG-20010904/DTD/svg10.dtd">
<svg version="1.0" xmlns="http://www.w3.org/2000/svg"
 width="1278.000000pt" height="1280.000000pt" viewBox="0 0 1278.000000 1280.000000"
 preserveAspectRatio="xMidYMid meet">
<metadata>
Created by potrace 1.15, written by Peter Selinger 2001-2017
</metadata>
<g transform="translate(0.000000,1280.000000) scale(0.100000,-0.100000)"
fill="#FFFFFF" stroke="none">
<path d="M11020 12790 c-659 -63 -1418 -308 -2290 -741 -1135 -562 -2360
-1405 -3428 -2358 -298 -267 -302 -270 -361 -292 -109 -42 -151 -34 -981 169
-235 58 -493 17 -691 -109 -47 -30 -482 -458 -1641 -1617 -1426 -1426 -1580
-1583 -1604 -1635 -49 -108 -18 -188 90 -237 53 -24 152 -43 736 -134 371 -58
891 -140 1155 -182 542 -85 586 -88 765 -40 157 41 275 102 390 200 64 55 113
71 168 57 31 -9 240 -214 1278 -1253 683 -684 1247 -1253 1253 -1265 27 -54 3
-152 -49 -198 -37 -33 -115 -159 -149 -240 -47 -111 -71 -216 -77 -330 -6 -92
2 -149 95 -740 55 -352 137 -869 181 -1150 44 -280 87 -530 95 -554 29 -87 93
-141 167 -141 96 0 34 -58 1714 1623 1063 1063 1585 1592 1613 1635 94 141
144 306 144 482 1 112 -2 125 -106 558 -59 244 -107 462 -107 485 1 62 32 121
108 201 406 427 981 1137 1374 1697 1169 1664 1873 3313 1915 4484 33 918
-357 1471 -1132 1606 -138 24 -467 34 -625 19z m-1122 -1884 c462 -92 858
-436 1004 -876 54 -161 63 -222 63 -430 0 -208 -9 -270 -63 -430 -116 -349
-397 -650 -741 -795 -412 -174 -884 -128 -1260 122 -106 72 -279 242 -350 346
-275 404 -311 921 -93 1353 68 134 138 231 246 340 209 209 447 331 743 379
110 18 336 13 451 -9z"/>
<path d="M3065 4781 c-67 -41 -282 -283 -450 -506 -511 -680 -1064 -1789
-1279 -2570 -83 -303 -92 -531 -21 -559 36 -14 69 -3 216 70 430 213 812 378
1434 617 467 179 556 216 745 311 343 172 690 435 1029 780 l104 106 -5 53
c-3 39 -13 66 -37 103 -19 27 -374 389 -790 805 -629 629 -765 761 -810 783
-65 31 -95 33 -136 7z"/>
</g>
</svg>
