<?xml version="1.0" standalone="no"?>
<!DOCTYPE svg PUBLIC "-//W3C//DTD SVG 20010904//EN"
 "http://www.w3.org/TR/2001/REC-SVG-20010904/DTD/svg10.dtd">
<svg version="1.0" xmlns="http://www.w3.org/2000/svg"
 width="1197.000000pt" height="1280.000000pt" viewBox="0 0 1197.000000 1280.000000"
 preserveAspectRatio="xMidYMid meet">
<metadata>
Created by potrace 1.15, written by Peter Selinger 2001-2017
</metadata>
<g transform="translate(0.000000,1280.000000) scale(0.100000,-0.100000)"
fill="#000000" stroke="none">
<path d="M6210 12330 c-2 -275 -9 -312 -25 -142 -4 42 -9 73 -10 67 -2 -5 -9
-43 -16 -83 -17 -97 -28 -74 -30 58 0 58 -4 114 -9 125 -5 12 -8 -52 -8 -155
1 -96 -4 -274 -10 -395 -23 -471 -12 -1092 24 -1420 13 -123 52 -379 57 -380
1 0 27 -9 56 -19 l55 -18 19 23 c18 23 19 23 30 4 7 -11 21 -46 33 -78 45
-120 94 -163 182 -158 26 1 29 28 7 70 -12 24 -12 31 -1 40 8 6 16 24 19 40 4
18 15 32 28 36 20 7 21 12 17 104 -3 71 -9 106 -25 136 -11 22 -40 110 -64
195 -37 131 -44 169 -44 247 0 55 5 97 11 103 9 9 13 5 18 -14 3 -14 11 -26
16 -26 12 0 13 -5 -5 82 -25 121 -23 118 -49 118 -22 0 -23 3 -29 118 -11 194
-30 319 -122 792 -64 329 -91 502 -109 681 l-13 134 -3 -285z"/>
<path d="M8499 11798 c-135 -182 -231 -358 -450 -833 -150 -325 -157 -341
-248 -575 -80 -207 -127 -345 -155 -455 -18 -69 -43 -282 -34 -291 11 -10 66
25 155 100 143 120 147 126 214 302 75 199 190 554 314 974 124 418 186 620
229 748 19 56 33 102 31 102 -2 0 -27 -32 -56 -72z"/>
<path d="M3755 11743 c42 -110 252 -860 242 -869 -2 -2 -21 39 -41 92 -21 52
-40 93 -42 91 -7 -6 150 -464 206 -603 123 -301 252 -513 430 -706 66 -72 75
-78 112 -78 58 0 106 26 128 71 24 46 24 83 2 170 -16 59 -19 65 -35 55 -15
-9 -22 -6 -40 16 -37 46 -339 533 -442 713 -184 321 -405 769 -489 993 -15 39
-30 72 -33 72 -3 0 -2 -8 2 -17z"/>
<path d="M10632 10404 c-287 -116 -563 -298 -962 -634 -539 -453 -752 -625
-830 -665 -14 -7 -63 -21 -110 -30 -115 -23 -148 -38 -195 -89 -30 -32 -50
-44 -82 -49 -39 -7 -103 -48 -103 -67 0 -5 17 -10 38 -12 35 -3 39 -7 70 -68
40 -80 36 -94 -44 -147 -53 -35 -55 -38 -32 -41 27 -3 37 -29 41 -109 l2 -33
60 0 c89 0 206 32 383 104 86 35 176 70 199 76 37 11 47 22 98 104 295 478
674 853 1465 1450 129 98 236 183 237 189 7 29 -17 42 -87 47 -64 5 -80 2
-148 -26z"/>
<path d="M1836 9680 c12 -14 72 -86 134 -160 63 -75 144 -159 184 -191 85 -67
177 -162 200 -207 9 -18 14 -32 10 -32 -3 0 -32 22 -63 48 -76 67 -141 112
-158 112 -25 0 20 -52 109 -127 46 -39 93 -89 106 -112 l23 -41 -21 0 c-31 0
-70 23 -110 65 -19 20 -48 46 -65 58 l-30 22 25 -30 c168 -202 374 -430 504
-560 174 -173 286 -259 437 -337 91 -46 226 -95 236 -85 2 3 13 40 24 82 16
61 18 84 10 108 -25 69 1 108 80 121 22 4 58 16 80 26 31 17 39 26 39 49 0 35
-23 57 -82 77 -81 27 -102 74 -33 74 43 0 50 12 31 49 -26 48 -45 63 -77 56
-31 -7 -40 5 -54 69 l-6 29 -107 -7 c-93 -6 -115 -4 -166 14 -160 55 -319 155
-606 381 -277 218 -330 254 -352 240 -14 -9 -25 -8 -47 3 -37 20 -132 96 -211
170 -35 34 -55 50 -44 36z"/>
<path d="M6120 9638 c-222 -18 -445 -77 -610 -161 -52 -27 -127 -57 -167 -67
-133 -35 -217 -90 -443 -290 -182 -161 -244 -209 -329 -252 l-63 -32 27 -22
27 -21 -27 -21 c-37 -29 -61 -35 -86 -22 -18 10 -26 7 -55 -21 -40 -38 -41
-45 -13 -54 19 -6 20 -8 3 -26 -24 -26 -6 -24 23 3 17 16 26 19 34 11 27 -27
-72 -134 -140 -153 -36 -9 -43 -17 -73 -77 -30 -62 -72 -103 -105 -103 -21 0
-14 29 9 41 18 10 19 13 8 17 -8 2 -27 17 -41 33 -30 32 -23 39 40 39 20 0 46
7 57 16 18 15 18 15 -4 9 -12 -4 -45 1 -73 10 -27 9 -61 14 -74 11 -49 -12
-149 -143 -254 -334 -35 -62 -84 -141 -109 -175 -47 -64 -71 -115 -72 -155 0
-13 -7 -36 -15 -52 -15 -28 -28 -35 -66 -32 -38 3 -152 -312 -150 -414 1 -44
-7 -82 -28 -141 -23 -62 -37 -139 -65 -348 -59 -439 -69 -565 -63 -790 5 -204
18 -300 57 -430 12 -38 28 -101 36 -139 8 -39 28 -112 44 -163 30 -92 36 -159
20 -198 -7 -17 -10 -14 -27 25 -11 25 -28 69 -37 98 -10 28 -20 52 -22 52 -3
0 -2 -28 2 -62 7 -63 34 -135 191 -508 201 -478 369 -670 745 -853 74 -36 147
-78 163 -95 43 -43 134 -98 260 -158 263 -125 557 -192 923 -210 l143 -7 -3
28 c-5 49 39 57 327 60 167 1 292 8 375 19 69 9 206 21 305 26 250 13 333 34
720 180 105 40 226 83 270 97 189 60 569 337 776 565 375 416 581 857 641
1373 17 148 17 634 0 745 -46 302 -112 513 -246 785 -131 264 -285 481 -505
708 -395 409 -815 635 -1322 713 -154 24 -464 24 -604 1 -452 -77 -771 -251
-1146 -626 -288 -289 -469 -572 -584 -916 -77 -230 -106 -410 -105 -655 0
-177 9 -277 41 -434 94 -463 435 -909 854 -1115 111 -55 335 -133 465 -162
258 -57 534 -47 1000 38 145 26 145 26 220 81 210 153 393 396 526 697 47 108
56 139 84 305 42 241 49 380 25 486 -11 47 -18 127 -20 199 -2 133 -14 189
-89 412 -40 119 -51 141 -106 207 -184 226 -454 385 -746 441 -54 10 -81 8
-255 -21 -234 -38 -301 -55 -397 -100 -138 -63 -247 -206 -244 -320 2 -52 60
-668 68 -714 9 -58 70 -172 122 -231 28 -30 82 -77 121 -103 95 -64 259 -140
274 -128 7 6 43 15 80 20 77 12 99 25 95 56 -3 19 -12 22 -83 27 -101 8 -264
69 -350 131 -107 78 -188 226 -215 391 -5 34 -17 145 -25 247 -8 102 -17 194
-20 206 -4 16 9 32 53 67 152 124 379 187 675 187 108 0 110 0 195 -42 126
-62 224 -145 256 -218 16 -37 82 -339 115 -530 68 -397 45 -645 -82 -882 -72
-134 -131 -212 -207 -273 -184 -149 -434 -230 -745 -242 -437 -16 -793 96
-1039 327 -81 77 -122 131 -199 261 -107 182 -163 340 -193 542 -25 168 -15
467 21 637 52 249 142 470 263 647 282 410 639 698 1023 826 184 62 410 94
574 82 116 -8 378 -50 475 -76 569 -151 1107 -688 1309 -1305 110 -336 85
-917 -61 -1408 -65 -221 -205 -525 -329 -716 -294 -453 -447 -591 -931 -836
-131 -66 -176 -84 -209 -84 -64 0 -159 -27 -304 -85 -186 -75 -191 -76 -327
-79 -108 -3 -144 -8 -288 -46 -153 -40 -174 -43 -290 -43 -69 0 -239 1 -377 2
-274 1 -359 9 -443 46 -30 13 -76 26 -102 30 -58 8 -91 33 -151 118 -46 63
-100 106 -112 87 -14 -22 -64 -8 -134 36 -39 26 -85 47 -100 49 -22 1 -45 20
-92 74 -35 39 -78 91 -94 114 -17 23 -63 84 -102 135 -123 159 -217 344 -263
518 -60 227 -88 294 -124 294 -12 0 -12 7 -3 36 8 26 8 50 0 87 -15 70 -59
168 -75 165 -22 -5 -50 63 -44 109 3 23 1 45 -4 48 -17 11 -11 25 11 25 20 0
21 4 17 51 -3 33 -11 55 -21 60 -9 5 -21 33 -27 62 -11 55 -4 113 26 211 8 28
19 106 25 173 9 117 24 186 95 443 19 65 28 125 30 190 1 52 5 104 9 115 15
48 32 70 55 73 20 2 47 38 143 191 109 174 117 190 106 214 -16 35 -5 84 37
165 l36 67 -46 -45 c-32 -30 -46 -52 -46 -70 0 -21 -5 -26 -21 -26 -12 1 -25
-6 -28 -14 -50 -105 -92 -158 -120 -149 -17 6 143 319 230 449 191 288 432
549 737 797 60 49 78 59 102 55 16 -2 53 1 82 8 63 15 191 77 184 89 -11 17
32 42 95 56 35 7 74 17 87 21 16 5 22 2 22 -10 0 -9 2 -16 5 -16 5 0 87 31 93
35 1 1 -2 14 -7 28 -21 54 85 151 199 183 30 9 96 33 145 54 209 89 374 128
585 139 319 16 591 -27 1190 -188 140 -38 256 -68 258 -67 1 2 -55 37 -125 78
-382 226 -661 335 -979 383 -125 19 -479 26 -644 13z"/>
<path d="M2085 9180 c44 -44 62 -57 71 -49 7 6 19 7 26 3 9 -4 10 -4 3 3 -16
16 -145 103 -153 103 -3 0 20 -27 53 -60z"/>
<path d="M4285 8630 c4 -6 11 -8 16 -5 14 9 11 15 -7 15 -8 0 -12 -5 -9 -10z"/>
<path d="M11339 8045 c-7 -7 -244 -52 -359 -69 -169 -24 -291 -35 -710 -61
-577 -37 -553 -33 -691 -99 -123 -59 -232 -98 -330 -118 -49 -10 -61 -16 -65
-35 -9 -33 12 -53 55 -53 43 0 108 -17 116 -31 4 -5 -6 -24 -21 -42 -15 -17
-40 -59 -56 -92 -28 -59 -28 -60 -9 -76 11 -9 47 -22 81 -29 74 -16 159 -6
394 46 288 64 533 147 1096 371 201 80 442 173 536 207 201 72 212 86 65 86
-54 0 -100 -2 -102 -5z"/>
<path d="M20 7598 c9 -10 564 -241 683 -285 117 -42 296 -96 427 -127 l65 -15
-100 4 c-55 3 -140 8 -190 11 -110 8 -105 -1 28 -50 221 -82 490 -146 802
-191 164 -23 202 -25 579 -25 221 0 471 3 555 7 140 6 150 7 136 23 -22 24
-19 31 30 80 25 24 45 47 45 51 0 23 -62 74 -140 115 -108 57 -118 73 -89 146
l21 53 -22 17 c-29 23 -33 23 -45 -4 -9 -20 -19 -24 -83 -28 -66 -4 -76 -8
-96 -33 l-23 -28 -224 -6 c-160 -4 -294 0 -469 12 -135 9 -355 20 -490 25
l-245 7 -385 82 c-212 45 -461 98 -555 117 -93 19 -181 38 -195 41 -14 3 -23
3 -20 1z"/>
<path d="M9495 6171 c-33 -16 -71 -38 -84 -49 l-23 -19 73 -74 c207 -210 454
-317 842 -366 112 -14 219 -16 708 -14 643 2 734 -3 858 -49 45 -16 85 -30 89
-30 3 0 -9 15 -27 34 -24 25 -33 43 -33 68 0 27 -7 38 -41 63 -175 127 -370
200 -642 239 -110 16 -293 30 -570 46 -373 21 -459 35 -675 105 -260 85 -372
96 -475 46z"/>
<path d="M3162 6010 c0 -19 2 -27 5 -17 2 9 2 25 0 35 -3 9 -5 1 -5 -18z"/>
<path d="M2844 5685 c-23 -17 -121 -20 -209 -5 -75 13 -128 5 -163 -24 -15
-13 -43 -26 -62 -30 -57 -10 -155 -61 -268 -140 -107 -73 -198 -126 -217 -126
-6 0 -15 -12 -21 -27 -15 -41 -75 -77 -225 -139 -74 -30 -172 -76 -219 -103
-47 -27 -101 -57 -120 -67 -43 -21 -140 -45 -140 -34 0 5 6 11 13 13 6 3 -9 6
-34 6 -53 1 -79 -18 -54 -39 22 -19 11 -27 -49 -34 -60 -8 -81 -20 -99 -56 -9
-19 -22 -26 -50 -28 -20 -2 -37 -7 -37 -11 0 -5 -28 -14 -63 -21 l-62 -13 45
-9 c75 -13 78 -17 40 -40 -19 -12 -109 -70 -200 -129 -91 -59 -194 -122 -229
-140 l-65 -34 70 -3 c49 -2 118 7 225 28 88 18 199 33 259 36 l105 4 -45 -22
c-25 -12 -106 -43 -180 -69 -74 -26 -130 -48 -125 -48 6 -1 90 15 188 34 98
19 220 40 270 45 282 33 549 105 922 247 94 36 204 81 245 100 112 52 189 78
348 118 204 51 282 83 368 152 40 31 42 36 49 103 5 52 4 75 -6 86 -11 14 -9
20 14 40 26 22 27 26 17 66 -27 109 -52 136 -96 104 -20 -15 -44 -5 -44 18 0
15 42 56 57 56 24 0 -8 66 -51 108 -48 45 -70 51 -102 27z"/>
<path d="M9063 4529 c-51 -10 -64 -21 -43 -34 22 -14 -4 -25 -56 -25 -42 0
-59 -5 -76 -22 l-21 -21 109 -107 c229 -224 457 -366 969 -605 138 -64 312
-148 388 -186 75 -38 137 -68 137 -66 0 13 -66 161 -92 207 -122 218 -341 443
-508 523 -41 19 -144 81 -229 137 -162 107 -265 163 -340 186 -62 19 -175 25
-238 13z"/>
<path d="M3615 4065 c-14 -13 -25 -33 -25 -43 0 -12 -28 -42 -72 -78 -501
-401 -1042 -988 -1617 -1752 -87 -115 -92 -124 -74 -137 17 -13 17 -15 -7 -40
-14 -15 -70 -65 -126 -110 -55 -46 -108 -95 -118 -110 -22 -34 -36 -42 247
149 125 85 227 151 227 145 0 -21 -45 -97 -88 -149 -42 -51 -39 -49 40 25 169
158 236 208 275 203 27 -3 23 -9 -87 -128 -126 -137 -123 -138 20 -10 300 269
523 480 1225 1161 215 209 402 390 418 403 37 33 34 60 -14 140 -49 81 -58
125 -35 161 17 26 16 28 -21 88 -40 63 -91 107 -125 107 -10 0 -30 -11 -43
-25z"/>
<path d="M3996 3929 c49 -54 263 -168 295 -157 5 2 -24 28 -64 58 -54 41 -81
55 -110 57 -24 1 -53 13 -79 32 -48 36 -70 41 -42 10z"/>
<path d="M5730 3420 c0 -5 7 -7 15 -4 8 4 15 8 15 10 0 2 -7 4 -15 4 -8 0 -15
-4 -15 -10z"/>
<path d="M7463 3336 c-73 -14 -204 -68 -224 -93 -9 -10 -8 -18 5 -31 18 -21
21 -43 5 -59 -7 -7 3 -42 36 -119 59 -137 115 -287 215 -574 195 -561 293
-788 446 -1028 l53 -84 3 99 c7 231 -19 562 -68 858 -25 150 -81 423 -108 524
-13 48 -13 57 1 84 8 17 17 44 18 61 2 17 7 57 11 88 7 61 4 65 -43 72 -10 2
-19 9 -20 17 -1 8 -5 44 -8 81 l-6 67 -52 19 c-72 27 -177 34 -264 18z"/>
<path d="M5260 3184 c-30 -19 -61 -39 -68 -43 -11 -6 -10 -16 7 -48 l20 -41
-98 -213 c-240 -523 -371 -873 -771 -2061 -228 -676 -247 -738 -233 -757 l14
-21 43 29 c56 39 98 86 179 203 58 83 88 146 231 486 382 906 590 1323 879
1765 79 121 93 137 117 137 34 0 46 14 59 69 10 47 35 81 60 81 10 0 -2 17
-31 45 -47 43 -52 53 -49 86 2 21 -72 121 -138 187 -47 47 -152 132 -162 132
-2 0 -29 -16 -59 -36z"/>
</g>
</svg>
