<svg width="198" height="198" viewBox="0 0 198 198" fill="none" xmlns="http://www.w3.org/2000/svg">
<g filter="url(#filter0_d)">
<rect x="5.5" y="1.5" width="187" height="187" rx="34.5" stroke="#49AA26" stroke-width="3"/>
<path d="M93.5179 152.364H105.059L105.192 141.977C124.635 140.467 135.954 130.524 136.043 114.633C135.954 100.118 126.144 91.2397 108.211 87.2891L105.858 86.7564L106.124 67.8466C110.741 69.3558 113.36 72.6406 113.759 77.3459H134.8C134.622 62.1204 123.791 51.3338 106.346 49.2031L106.48 38.7273H94.9384L94.8052 49.07C76.7388 50.8011 64.2211 61.5877 64.3542 77.0795C64.3098 90.8846 73.9867 98.6527 89.7005 102.248L94.1394 103.269L93.873 123.377C87.4366 121.868 83.4416 117.607 83.0421 110.727H62.0016C62.2235 129.991 74.3862 140.112 93.6511 141.888L93.5179 152.364ZM105.414 123.333L105.636 106.288C111.14 108.285 113.671 110.771 113.759 114.588C113.671 118.805 110.697 122.001 105.414 123.333ZM94.3613 83.8267C89.7005 82.0511 86.9483 79.5209 87.0815 75.5703C87.1259 71.7528 89.6117 68.7788 94.5833 67.5803L94.3613 83.8267Z" fill="#363F5F"/>
</g>
<defs>
<filter id="filter0_d" x="0" y="0" width="198" height="200" filterUnits="userSpaceOnUse" color-interpolation-filters="sRGB">
<feFlood flood-opacity="0" result="BackgroundImageFix"/>
<feColorMatrix in="SourceAlpha" type="matrix" values="0 0 0 0 0 0 0 0 0 0 0 0 0 0 0 0 0 0 127 0"/>
<feOffset dy="4"/>
<feGaussianBlur stdDeviation="2"/>
<feColorMatrix type="matrix" values="0 0 0 0 0 0 0 0 0 0 0 0 0 0 0 0 0 0 0.25 0"/>
<feBlend mode="normal" in2="BackgroundImageFix" result="effect1_dropShadow"/>
<feBlend mode="normal" in="SourceGraphic" in2="effect1_dropShadow" result="shape"/>
</filter>
</defs>
</svg>
